<svg height="32" width="32" xmlns="http://www.w3.org/2000/svg"><path d="M28.5 26.5h-25a2 2 0 01-2-2v-17a2 2 0 012-2h25a2 2 0 012 2v17a2 2 0 01-2 2z" fill="#FFF"/><path d="M29.64 8.973L16 18.305 2.36 8.973a1.988 1.988 0 01-.267-.235H2.08l17.715 17.716h8.728c1.088 0 1.978-.89 1.978-1.977V7.341a1.979 1.979 0 01-.861 1.632z" fill="#ECEFF1"/><path d="M30.5 7v17.542a1.958 1.958 0 01-1.958 1.958H27V7h3.5zm-29 0v17.542c0 1.082.877 1.958 1.958 1.958H5V7H1.5z" fill="#FF8A80"/><path d="M28.522 5.364L16 13.932 3.478 5.364c-1.088 0-1.978.89-1.978 1.977 0 .677.341 1.275.86 1.631L16 18.305l13.64-9.333c.519-.356.86-.954.86-1.631 0-1.087-.89-1.977-1.978-1.977z" fill="#FF8A80"/><path d="M28.5 27h-25A2.503 2.503 0 011 24.5v-17a.5.5 0 011 0v17c0 .827.673 1.5 1.5 1.5h25c.827 0 1.5-.673 1.5-1.5v-17c0-.827-.673-1.5-1.5-1.5a.5.5 0 010-1C29.878 5 31 6.122 31 7.5v17c0 1.378-1.122 2.5-2.5 2.5z" fill="#455A64"/><path d="M16 19a.5.5 0 01-.284-.088L2.066 9.498A2.466 2.466 0 011 7.467 2.47 2.47 0 013.467 5h25.065a2.467 2.467 0 011.402 4.498l-13.65 9.414A.5.5 0 0116 19zM3.467 6a1.469 1.469 0 00-.833 2.675L16 17.893l13.366-9.218A1.467 1.467 0 0028.533 6H3.467z" fill="#455A64"/></svg>