<svg xmlns="http://www.w3.org/2000/svg" viewBox="0 0 384 384" width="512" height="512"><path d="M348.4 250.268c-22.811 0-45.21-3.567-66.435-10.582-10.4-3.547-23.186-.293-29.534 6.227l-41.894 31.626c-48.586-25.935-78.514-55.854-104.095-104.075l30.695-40.803c7.975-7.964 10.836-19.598 7.409-30.514-7.045-21.336-10.623-43.724-10.623-66.546 0-16.486-13.412-29.898-29.897-29.898H35.6C19.115 5.703 5.703 19.115 5.703 35.6c0 188.966 153.732 342.697 342.698 342.697 16.485 0 29.897-13.412 29.897-29.897v-68.235c0-16.484-13.413-29.897-29.897-29.897z" data-original="#000000" class="active-path" data-old_color="#000000" fill="#FFF"/></svg>