<svg xmlns="http://www.w3.org/2000/svg" width="197" height="260"><path d="M159.1 190.1c6.1-2.3 12.2 2.1 11.8 8.2l-1.7 25.8c-1.1 13.2-26.9 33.9-70.7 33.9-45.2 0-69.7-20.7-70.7-33.9L26 198.5c-.5-6.2 5.7-10.5 11.5-8.2h.3c3.2 1.1 4.9 3.8 5.2 6.9l.3 2.8c1.3 14 25.3 24.5 55.4 24.5s54-10.5 55.4-24.5l.3-3c-.2-3.1 1.9-5.9 4.7-6.9.4 0 .4 0 0 0zm34.4-82.4c-5.3 35-5.3 62.5-43.8 73.8l-1.3 13.5c-.4 6.9-17.7 17.1-47.1 17.1h-4.5c-29.5 0-46.4-10.2-47.1-17.1l-1.3-13.5C8.9 170.2 8.9 142.6 3.6 107.7c-3.8-25.8-.9-50.6 11.5-69.9C29.1 16.3 55.1 2 96.9 2h3.4c41.8 0 67.8 14.3 81.8 35.8 12.6 19.4 15.6 44.5 11.4 69.9zM84.2 129.4v-17.6c0-7.4-6.1-13.2-13.2-13.2H58c-13.2 0-24.2 11-24.2 24.2v13c0 7.4 6.1 13.2 13.2 13.2h17.3c10.7 0 19.6-8.6 19.6-19.6h.3zm28.4 38.9l-8.2-18.7c-2.1-4.9-10.1-4.9-12.1 0l-8.2 18.7c-1.9 4.1 1.7 8.2 6.1 8.2h16.6c4.7.1 7.8-4.2 5.8-8.2zm51.2-32.3v-13c0-13.2-11-24.2-24.2-24.2h-13c-7.4 0-13.2 6.1-13.2 13.2v17.6c0 10.7 8.6 19.6 19.6 19.6h17.3c7.4 0 13.2-6.1 13.2-13.2h.3z"/></svg>