<svg height="32" width="32" xmlns="http://www.w3.org/2000/svg"><circle cx="9.91" cy="9.91" fill="#80D8FF" r="8.41"/><circle cx="22.09" cy="22.09" fill="#80D8FF" r="8.41"/><circle cx="9.91" cy="9.91" fill="#73C2E6" r="8.41"/><circle cx="22.09" cy="22.09" fill="#73C2E6" r="8.41"/><circle cx="16" cy="16" fill="#FFF" r="13.5"/><path d="M16 3.5c-7.287 0-13.21 5.778-13.475 13 .265 7.222 6.188 13 13.475 13s13.21-5.778 13.475-13C29.21 9.278 23.287 3.5 16 3.5z" fill="#80D8FF"/><path d="M12.39 15.736a4.23 4.23 0 01-1.326-1.401 3.867 3.867 0 01-.454-1.935 3.484 3.484 0 01.818-2.341 4.927 4.927 0 012.136-1.427 8.24 8.24 0 012.796-.471c.623-.006 1.245.042 1.86.143a6.7 6.7 0 011.29.333c.384.13.729.351 1.009.645.206.242.317.55.313.867a1.26 1.26 0 01-.328.904 1.087 1.087 0 01-.824.343 1.474 1.474 0 01-.613-.137c-.474-.212-.961-.39-1.459-.534a5.29 5.29 0 00-1.405-.175 3.213 3.213 0 00-1.761.449 1.461 1.461 0 00-.702 1.316 1.32 1.32 0 00.364.925c.282.292.615.531.983.703.412.205 1.026.476 1.844.814.091.029.18.064.265.106a13.02 13.02 0 012.283 1.173 4.6 4.6 0 011.406 1.443c.351.608.526 1.302.507 2.003a4.036 4.036 0 01-.702 2.416 4.187 4.187 0 01-1.967 1.459 8.297 8.297 0 01-2.954.481 9.31 9.31 0 01-4.027-.761 2.203 2.203 0 01-.83-.645 1.448 1.448 0 01-.27-.877 1.144 1.144 0 01.354-.893c.252-.221.579-.336.914-.322.373.005.738.099 1.067.274.409.205.731.358.968.46a4.793 4.793 0 001.907.375 2.868 2.868 0 001.803-.481c.402-.315.629-.805.607-1.316a1.398 1.398 0 00-.38-.962 4.058 4.058 0 00-1.121-.814c-.493-.261-1.188-.578-2.082-.952a12.807 12.807 0 01-2.289-1.188z" fill="#FFF"/><path d="M15.441 24.345a9.75 9.75 0 01-3.899-.808 2.706 2.706 0 01-1.024-.794 1.967 1.967 0 01-.377-1.2 1.617 1.617 0 01.51-1.243 1.818 1.818 0 011.204-.461 2.92 2.92 0 011.357.334c.387.193.7.343.931.442a4.34 4.34 0 001.663.335c.138.005.193.007.249.007.473 0 .929-.14 1.32-.403.246-.195.401-.532.387-.881a.906.906 0 00-.244-.64 3.505 3.505 0 00-.978-.708c-.486-.257-1.173-.571-2.055-.939-.82-.327-1.62-.742-2.369-1.232a4.76 4.76 0 01-1.484-1.567 4.386 4.386 0 01-.522-2.201c-.027-.949.305-1.9.937-2.649a5.439 5.439 0 012.357-1.579 8.704 8.704 0 012.905-.497h.152c.614 0 1.233.05 1.84.15.469.072.935.192 1.382.357.445.15.864.418 1.198.769.304.355.457.781.45 1.22.021.438-.143.887-.459 1.233a1.6 1.6 0 01-1.164.507 2.015 2.015 0 01-.853-.184 10.439 10.439 0 00-1.388-.507 4.777 4.777 0 00-1.212-.156l-.174-.002c-.487 0-.967.132-1.386.381a.96.96 0 00-.459.864.837.837 0 00.228.603c.238.247.52.448.833.595.414.205 1.023.474 1.823.805.075.022.188.066.295.12.788.31 1.586.72 2.333 1.201a5.162 5.162 0 011.561 1.601c.404.701.603 1.485.581 2.279a4.536 4.536 0 01-.789 2.684 4.678 4.678 0 01-2.213 1.648 8.765 8.765 0 01-2.956.511l-.175-.001a7.285 7.285 0 01-.316.006zm-3.545-3.505a.836.836 0 00-.572.198.644.644 0 00-.185.489c-.004.244.059.448.177.614.156.196.378.368.627.479a8.861 8.861 0 003.807.719l.183.001c.896 0 1.778-.152 2.621-.453a3.675 3.675 0 001.732-1.285 3.534 3.534 0 00.604-2.101 3.321 3.321 0 00-.44-1.771 4.114 4.114 0 00-1.246-1.274 12.58 12.58 0 00-2.193-1.127 1.878 1.878 0 00-.232-.094 32.309 32.309 0 01-1.915-.843 3.783 3.783 0 01-1.12-.804 1.808 1.808 0 01-.505-1.278 1.95 1.95 0 01.942-1.738 3.715 3.715 0 011.901-.524l.138.003h.008c.533 0 1.028.064 1.507.191.529.152 1.042.34 1.535.561a.991.991 0 00.413.094h.001a.607.607 0 00.455-.186.758.758 0 00.192-.54.829.829 0 00-.193-.565 1.992 1.992 0 00-.788-.495 6.261 6.261 0 00-1.206-.313 10.356 10.356 0 00-1.683-.138h-.106c-.928 0-1.795.149-2.624.442a4.439 4.439 0 00-1.926 1.285 2.96 2.96 0 00-.695 1.998 3.384 3.384 0 00.396 1.713c.277.477.683.904 1.16 1.219a12.49 12.49 0 002.198 1.142c.93.388 1.624.706 2.131.974.457.224.881.531 1.246.907.34.36.522.824.521 1.312a2.083 2.083 0 01-.799 1.708 3.376 3.376 0 01-1.908.595c-.079 0-.159-.003-.238-.009-.375.023-.774-.04-1.145-.122a5.243 5.243 0 01-.921-.292 20.251 20.251 0 01-.998-.474 1.87 1.87 0 00-.851-.222c-.002.004-.004.004-.006.004z" fill="#455A64"/><path d="M22.09 31a8.812 8.812 0 01-3.662-.796c-.845.145-1.641.216-2.428.216-7.951 0-14.42-6.469-14.42-14.42 0-.785.07-1.58.216-2.428A8.812 8.812 0 011 9.91C1 4.997 4.997 1 9.91 1a8.82 8.82 0 013.663.796l.025-.004a.5.5 0 01.164.986l-.168.029a.499.499 0 01-.304-.04A7.833 7.833 0 009.91 2C5.549 2 2 5.548 2 9.91a7.82 7.82 0 00.768 3.38.502.502 0 01.04.303A13.341 13.341 0 002.58 16c0 7.4 6.021 13.42 13.42 13.42.775 0 1.563-.074 2.406-.228a.488.488 0 01.303.041A7.84 7.84 0 0022.09 30c4.361 0 7.91-3.548 7.91-7.91 0-1.17-.258-2.307-.768-3.38a.501.501 0 01-.04-.303c.154-.847.228-1.635.228-2.407 0-6.851-5.127-12.584-11.925-13.337a.5.5 0 11.11-.994C24.91 2.478 30.42 8.639 30.42 16c0 .784-.07 1.58-.216 2.428A8.808 8.808 0 0131 22.09c0 4.913-3.997 8.91-8.91 8.91z" fill="#455A64"/><circle cx="15.499" cy="2" fill="#455A64" r=".5"/></svg>