<svg height="32" width="32" xmlns="http://www.w3.org/2000/svg"><path d="M16.004 1.5h-.008C8.002 1.5 1.5 8.004 1.5 16a14.39 14.39 0 002.761 8.499l-1.807 5.388 5.573-1.782a14.382 14.382 0 007.977 2.396C23.998 30.5 30.5 23.996 30.5 16S23.998 1.5 16.004 1.5z" fill="#FFF"/><path d="M8.027 28.104a14.382 14.382 0 007.977 2.396C23.998 30.5 30.5 23.996 30.5 16a14.43 14.43 0 00-.535-3.849C27.832 6.798 22.608 3 16.504 3h-.008C8.502 3 2 9.504 2 17.5c0 .409-.087.824-.229 1.241a14.389 14.389 0 002.49 5.757l-1.807 5.388 5.573-1.782z" fill="#65F0CD"/><path d="M16.004 31c-2.868 0-5.646-.811-8.05-2.347l-5.348 1.709a.498.498 0 01-.626-.635l1.725-5.146A14.837 14.837 0 011 16c0-4.076 1.612-7.891 4.539-10.742a.5.5 0 01.697.716A13.895 13.895 0 002 16c0 2.974.922 5.811 2.665 8.204a.5.5 0 01.069.454L3.242 29.11l4.633-1.481a.501.501 0 01.429.059 13.912 13.912 0 007.7 2.312C23.722 30 30 23.72 30 16c0-7.719-6.278-14-13.996-14h-.003a13.83 13.83 0 00-6.164 1.429.5.5 0 01-.441-.897A14.823 14.823 0 0115.996 1C24.272 1 31 7.729 31 16s-6.728 15-14.996 15z" fill="#455A64"/><path d="M23.717 19.344c-.426-.213-2.497-1.236-2.889-1.373-.384-.145-.75-.093-1.039.316-.41.571-.81 1.151-1.134 1.5-.256.273-.674.307-1.022.162-.469-.196-1.781-.657-3.4-2.097-1.253-1.116-2.105-2.506-2.353-2.923-.247-.426-.025-.674.171-.904.213-.264.417-.452.63-.699.214-.248.333-.375.47-.665.145-.281.042-.571-.061-.785-.102-.213-.954-2.293-1.304-3.137-.281-.673-.494-.699-.92-.716-.146-.008-.307-.017-.486-.017-.554 0-1.133.162-1.482.52-.427.435-1.483 1.449-1.483 3.529s1.517 4.092 1.722 4.374c.213.281 2.957 4.611 7.218 6.376 3.332 1.381 4.321 1.253 5.079 1.091 1.108-.239 2.497-1.058 2.847-2.046.35-.989.35-1.833.247-2.012-.104-.178-.385-.28-.811-.494z" fill="#FFF"/><path d="M20.602 24.493c-1.011 0-2.422-.39-4.439-1.226-2.633-1.09-5.243-3.374-7.35-6.429l-.075-.107c-.696-.951-1.823-2.773-1.823-4.675 0-2.229 1.115-3.36 1.592-3.843.449-.461 1.12-.706 1.874-.706.19 0 .36.009.515.018.635.025 1.003.185 1.353 1.022l.363.88c.384.931.857 2.08.931 2.235.082.169.331.688.054 1.228-.148.316-.293.483-.492.713-.14.161-.233.261-.328.361-.11.118-.222.234-.334.375-.193.226-.193.226-.128.339.37.625 1.157 1.825 2.253 2.8 1.422 1.265 2.571 1.73 3.123 1.954l.137.056c.145.06.328.103.465-.042.248-.267.562-.706.894-1.171l.199-.279c.349-.493.779-.597 1.078-.597.175 0 .357.035.543.105.465.162 2.912 1.381 2.937 1.393l.235.115c.35.168.626.301.784.579.229.398.139 1.442-.209 2.427-.417 1.179-1.967 2.1-3.213 2.368a4.31 4.31 0 01-.939.107zM10.38 8.507c-.472 0-.902.142-1.124.369-.461.468-1.342 1.361-1.342 3.18 0 1.181.585 2.658 1.605 4.051l.116.165c1.998 2.898 4.452 5.055 6.909 6.072 1.893.785 3.182 1.15 4.057 1.15.3 0 .523-.042.727-.085.973-.21 2.198-.929 2.479-1.724.304-.857.298-1.516.262-1.647-.002.031-.182-.054-.327-.124l-.249-.122c-.701-.351-2.513-1.236-2.83-1.347a.573.573 0 00-.202-.045c-.045 0-.138 0-.264.178l-.2.28c-.351.492-.682.956-.976 1.272-.377.403-1.024.515-1.581.283l-.127-.052c-.557-.225-1.862-.753-3.413-2.133-1.196-1.066-2.049-2.363-2.451-3.042-.423-.729.006-1.231.212-1.472.131-.163.259-.298.387-.434.084-.089.168-.178.254-.278.225-.259.299-.345.396-.552.029-.057.045-.138-.059-.354-.076-.16-.562-1.334-.953-2.286l-.362-.877c-.165-.396-.165-.396-.479-.408a6.578 6.578 0 00-.465-.018z" fill="#455A64"/><circle cx="7.5" cy="4" fill="#455A64" r=".5"/></svg>